<?xml version="1.0" encoding="UTF-8"?> <svg xmlns="http://www.w3.org/2000/svg" id="Layer_2" data-name="Layer 2" viewBox="0 0 29.14 24.54"> <defs> <style> .cls-1 { fill: #ffffff; stroke-width: 0px; } </style> </defs> <g id="Layer_4" data-name="Layer 4"> <path class="cls-1" d="m27.27.1L.62,10.48c-.86.34-.81,1.58.08,1.84l6.77,2,2.53,8.02c.26.84,1.33,1.09,1.94.46l3.51-3.58,6.87,5.04c.84.62,2.04.16,2.25-.86L29.11,1.65c.23-1.06-.82-1.95-1.84-1.55h0Zm-3.34,4.83l-12.38,10.95c-.12.11-.2.26-.22.42l-.48,4.24c-.02.14-.21.16-.25.02l-1.96-6.32c-.09-.29.03-.6.29-.76l14.62-9.07c.33-.19.68.27.38.53h0Z"></path> </g> </svg> 