<?xml version="1.0" encoding="UTF-8"?> <svg xmlns="http://www.w3.org/2000/svg" id="Layer_2" data-name="Layer 2" viewBox="0 0 30.35 24.67"> <defs> <style> .cls-1 { fill: #ffffff; stroke-width: 0px; } </style> </defs> <g id="Layer_4" data-name="Layer 4"> <path class="cls-1" d="m30.35,2.92c-1.12.5-2.32.83-3.58.98,1.29-.77,2.27-1.99,2.74-3.44-1.2.71-2.54,1.23-3.95,1.51-1.14-1.21-2.75-1.97-4.55-1.97-3.44,0-6.23,2.79-6.23,6.23,0,.49.06.96.16,1.42-5.18-.26-9.76-2.74-12.83-6.51-.54.92-.84,1.99-.84,3.13,0,2.16,1.1,4.07,2.77,5.18-1.02-.03-1.98-.31-2.82-.78,0,.03,0,.05,0,.08,0,3.02,2.15,5.53,4.99,6.11-.52.14-1.07.22-1.64.22-.4,0-.79-.04-1.17-.11.79,2.47,3.09,4.27,5.82,4.32-2.13,1.67-4.82,2.67-7.73,2.67-.5,0-1-.03-1.49-.09,2.76,1.77,6.03,2.8,9.55,2.8,11.45,0,17.72-9.49,17.72-17.72,0-.27,0-.54-.02-.81,1.22-.88,2.27-1.97,3.11-3.22"></path> </g> </svg> 